<?xml version="1.0" encoding="UTF-8" standalone="no"?>
<svg
   version="1.1"
   id="Layer_1"
   x="0px"
   y="0px"
   width="80"
   viewBox="0 0 80 80"
   enable-background="new 0 0 1024 1024"
   xml:space="preserve"
   sodipodi:docname="pluginIcon.svg"
   inkscape:version="1.4 (e7c3feb100, 2024-10-09)"
   inkscape:export-filename="pluginIcon.png"
   inkscape:export-xdpi="96"
   inkscape:export-ydpi="96"
   height="80"
   xmlns:inkscape="http://www.inkscape.org/namespaces/inkscape"
   xmlns:sodipodi="http://sodipodi.sourceforge.net/DTD/sodipodi-0.dtd"
   xmlns="http://www.w3.org/2000/svg"
   xmlns:svg="http://www.w3.org/2000/svg"><defs
   id="defs11"><inkscape:path-effect
     effect="spiro"
     id="path-effect2"
     is_visible="true"
     lpeversion="1" /><inkscape:path-effect
     effect="fillet_chamfer"
     id="path-effect1"
     is_visible="true"
     lpeversion="1"
     nodesatellites_param="F,0,0,1,0,0,0,1 @ F,0,0,1,0,0,0,1 @ F,0,0,1,0,0,0,1 @ F,0,0,1,0,0,0,1 @ F,0,0,1,0,0,0,1 @ F,0,0,1,0,0,0,1 @ F,0,0,1,0,0,0,1 @ F,0,0,1,0,0,0,1"
     radius="0"
     unit="px"
     method="auto"
     mode="F"
     chamfer_steps="1"
     flexible="false"
     use_knot_distance="true"
     apply_no_radius="true"
     apply_with_radius="true"
     only_selected="false"
     hide_knots="false" /><rect
     x="221.54897"
     y="436.00204"
     width="397.36896"
     height="99.342239"
     id="rect3" /></defs><sodipodi:namedview
   id="namedview11"
   pagecolor="#ffffff"
   bordercolor="#000000"
   borderopacity="0.25"
   inkscape:showpageshadow="2"
   inkscape:pageopacity="0.0"
   inkscape:pagecheckerboard="true"
   inkscape:deskcolor="#d1d1d1"
   inkscape:zoom="8.3753849"
   inkscape:cx="40.416053"
   inkscape:cy="49.430564"
   inkscape:window-width="1920"
   inkscape:window-height="1024"
   inkscape:window-x="0"
   inkscape:window-y="32"
   inkscape:window-maximized="1"
   inkscape:current-layer="g84" />











<g
   id="g84"
   transform="matrix(0.10632966,0,0,0.10632966,-14.440786,-2.5462565)"><g
     id="text1"
     style="font-size:376.189px;font-family:'Noto Sans Math';-inkscape-font-specification:'Noto Sans Math';letter-spacing:0px;fill:#afc6e9;stroke-width:15.7529;stroke-linecap:round"
     aria-label="ð‘“...(){}"><path
       style="fill:#8c8c8c"
       d="m 166.26424,585.92235 q -7.14759,0 -13.16661,-1.12856 -6.01903,-1.12857 -10.90948,-2.63333 v -27.83798 q 5.26664,1.50475 10.1571,2.63332 4.89046,1.50476 10.90948,1.50476 13.5428,0 21.06658,-11.28567 7.52378,-10.90949 12.03805,-31.59988 l 41.38079,-196.37066 h -34.98558 l 2.63333,-13.91899 37.6189,-12.41424 4.13808,-18.05707 q 6.01902,-25.95704 14.67137,-40.25222 9.02853,-14.67137 22.19515,-20.69039 13.16661,-6.01903 31.59987,-6.01903 9.40473,0 19.18564,2.25714 10.1571,1.88094 16.17613,4.89045 l -8.65235,25.20467 q -5.26664,-1.88095 -11.66186,-3.38571 -6.01902,-1.88094 -13.5428,-1.88094 -14.67137,0 -23.32372,8.27616 -8.27616,8.27616 -13.5428,31.59987 l -4.51427,19.18564 h 43.26173 l -4.89045,25.20466 H 270.84478 L 228.71161,519.3369 q -6.39521,31.22369 -21.06658,48.90457 -14.29518,17.68088 -41.38079,17.68088 z"
       id="path21" /><path
       style="fill:#739cd7"
       d="m 267.30887,556.95696 q -11.28565,0 -19.41132,-7.22282 -8.12567,-7.22281 -8.12567,-23.47415 0,-16.70276 8.12567,-23.47415 8.12567,-6.77139 19.41132,-6.77139 11.73707,0 19.86274,6.77139 8.57709,6.77139 8.57709,23.47415 0,16.25134 -8.57709,23.47415 -8.12567,7.22282 -19.86274,7.22282 z m 68.0335,0 q -11.28565,0 -19.41131,-7.22282 -8.12567,-7.22281 -8.12567,-23.47415 0,-16.70276 8.12567,-23.47415 8.12566,-6.77139 19.41131,-6.77139 11.73708,0 19.86275,6.77139 8.57709,6.77139 8.57709,23.47415 0,16.25134 -8.57709,23.47415 -8.12567,7.22282 -19.86275,7.22282 z"
       id="path22" /><path
       style="fill:#739cd7"
       d="m 403.37588,556.95696 q -11.28565,0 -19.41131,-7.22282 -8.12567,-7.22281 -8.12567,-23.47415 0,-16.70276 8.12567,-23.47415 8.12566,-6.77139 19.41131,-6.77139 11.73708,0 19.86275,6.77139 8.57709,6.77139 8.57709,23.47415 0,16.25134 -8.57709,23.47415 -8.12567,7.22282 -19.86275,7.22282 z"
       id="path23" /><path
       style="fill:#8c8c8c"
       d="m 481.71706,555.07485 q -33.85701,-35.73795 -50.03314,-81.25682 -15.79994,-45.51887 -15.79994,-94.42344 0,-49.65694 15.79994,-95.92819 16.17613,-46.27125 50.03314,-82.76158 h 31.22368 q -31.59987,37.99509 -47.776,84.26634 -15.79994,45.89505 -15.79994,94.04724 0,47.39982 16.17613,92.91869 16.17613,45.14268 47.02363,83.13776 z"
       id="path24" /><path
       style="fill:#8c8c8c"
       d="m 521.78085,555.07485 q 31.22368,-37.99508 47.02362,-83.13776 16.17613,-45.51887 16.17613,-92.91869 0,-48.15219 -16.17613,-94.04724 -15.79994,-46.27125 -47.39981,-84.26634 h 31.22368 q 33.85701,36.49033 49.65695,82.76158 16.17613,46.27125 16.17613,95.92819 0,48.90457 -16.17613,94.42344 -15.79994,45.51887 -49.65695,81.25682 z"
       id="path25" /><path
       style="fill:#8c8c8c"
       d="m 750.31532,555.07485 q -33.10463,0 -53.79503,-15.04756 Q 675.8299,524.97974 675.8299,495.2608 v -68.46639 q 0,-19.18564 -12.03805,-27.08561 -11.66186,-8.27616 -33.85701,-8.27616 v -27.46179 q 22.19515,-0.75238 33.85701,-8.27616 12.03805,-7.52378 12.03805,-26.70942 v -68.84259 q 0,-30.09512 20.69039,-44.76649 20.6904,-14.67137 53.79503,-14.67137 v 27.08561 q -19.93802,0 -30.8475,8.65235 -10.90948,8.27615 -10.90948,26.70941 v 67.33783 q 0,38.74747 -41.0046,45.89506 v 2.25714 q 41.0046,7.14759 41.0046,45.89505 v 68.4664 q 0,18.43326 10.90948,26.70942 10.90948,8.27616 30.8475,8.27616 z"
       id="path26" /><path
       style="fill:#8c8c8c"
       d="m 761.13046,555.07485 v -27.0856 q 19.93801,0 30.8475,-8.27616 10.90948,-8.27616 10.90948,-26.70942 v -68.4664 q 0,-38.74746 41.0046,-45.89505 v -2.25714 q -41.0046,-7.14759 -41.0046,-45.89506 v -67.33783 q 0,-18.43326 -10.90948,-26.70941 -10.90949,-8.65235 -30.8475,-8.65235 v -27.08561 q 33.10463,0 53.79502,14.67137 20.6904,14.67137 20.6904,44.76649 v 68.84259 q 0,19.18564 11.66186,26.70942 12.03805,7.52378 34.2332,8.27616 v 27.46179 q -22.19515,0 -34.2332,8.27616 -11.66186,7.89997 -11.66186,27.08561 v 68.46639 q 0,29.71894 -20.6904,44.76649 -20.69039,15.04756 -53.79502,15.04756 z"
       id="path27" /></g></g></svg>
